<?xml version="1.0" encoding="utf-8"?>
<!-- Generator: Adobe Illustrator 16.0.0, SVG Export Plug-In . SVG Version: 6.00 Build 0)  -->
<!DOCTYPE svg PUBLIC "-//W3C//DTD SVG 1.1//EN" "http://www.w3.org/Graphics/SVG/1.1/DTD/svg11.dtd">
<svg version="1.1" id="Layer_1" xmlns="http://www.w3.org/2000/svg" xmlns:xlink="http://www.w3.org/1999/xlink" x="0px" y="0px"
	 width="32px" height="32px" viewBox="0 0 32 32" enable-background="new 0 0 32 32" xml:space="preserve">
<path fill="#030202" d="M25.08,31.875H6.919c-1.888,0-3.485-0.666-4.791-1.999c-1.307-1.334-1.976-2.931-2.004-4.786V6.909
	c0-1.883,0.668-3.478,2.004-4.784c1.334-1.305,2.933-1.972,4.791-2h11.324c0.639,0,1.176,0.231,1.611,0.695
	c0.435,0.465,0.667,0.987,0.698,1.567c0.026,0.58-0.206,1.115-0.698,1.608c-0.496,0.494-1.03,0.725-1.611,0.695H6.919
	c-0.61,0-1.147,0.219-1.611,0.654C4.843,5.778,4.625,6.3,4.654,6.909V25.09c0,0.609,0.219,1.132,0.654,1.565
	c0.436,0.435,0.972,0.653,1.611,0.653H25.08c0.61,0,1.132-0.219,1.568-0.653c0.436-0.434,0.669-0.956,0.696-1.565v-6.827
	c0-0.609,0.23-1.13,0.697-1.568c0.465-0.434,1.001-0.663,1.611-0.694c0.61-0.028,1.131,0.202,1.568,0.694
	c0.437,0.494,0.653,1.017,0.653,1.568v6.827c0,1.887-0.666,3.478-2.006,4.786C28.538,31.18,26.939,31.847,25.08,31.875z
	 M18.636,22.393c-0.843,0-1.556-0.29-2.135-0.868l-6.011-6.003c-0.58-0.637-0.871-1.362-0.871-2.174
	c0-0.812,0.291-1.522,0.871-2.132c0.582-0.609,1.277-0.898,2.09-0.869c0.813,0.029,1.525,0.32,2.135,0.869l3.267,3.22L25.82,2.082
	c0.406-0.724,1.017-1.202,1.83-1.437c0.814-0.231,1.581-0.159,2.308,0.219c0.726,0.376,1.204,0.986,1.436,1.826
	c0.234,0.843,0.133,1.61-0.305,2.305l-9.797,15.831C20.77,21.87,19.884,22.393,18.636,22.393z"/>
</svg>
