<?xml version="1.0" encoding="utf-8"?>
<!-- Generator: Adobe Illustrator 16.0.0, SVG Export Plug-In . SVG Version: 6.00 Build 0)  -->
<!DOCTYPE svg PUBLIC "-//W3C//DTD SVG 1.1//EN" "http://www.w3.org/Graphics/SVG/1.1/DTD/svg11.dtd">
<svg version="1.1" id="Layer_1" xmlns="http://www.w3.org/2000/svg" xmlns:xlink="http://www.w3.org/1999/xlink" x="0px" y="0px"
	 width="32px" height="32px" viewBox="0 0 32 32" enable-background="new 0 0 32 32" xml:space="preserve">
<path d="M24.381,31.75H7.619c-3.067,0-5.119-1.97-5.119-5.313c0-4.079,0.767-10.52,5.332-11.586
	c-0.308,0.779-0.423,1.619-0.423,2.461v4.163c-1.477,0.554-2.454,2.052-2.454,3.713c0,2.172,1.649,3.938,3.683,3.938
	c2.033,0,3.682-1.767,3.682-3.938c0-1.661-0.998-3.159-2.456-3.713v-4.163c0-0.678,0.058-1.354,0.48-1.907
	c1.611,1.354,3.605,2.132,5.658,2.132c2.053,0,4.047-0.778,5.655-2.132c0.422,0.554,0.48,1.229,0.48,1.907v1.31
	c-2.704,0-4.91,2.36-4.91,5.252v1.825c-0.382,0.369-0.612,0.904-0.612,1.458c0,1.085,0.822,1.97,1.84,1.97
	c1.019,0,1.842-0.885,1.842-1.97c0-0.554-0.231-1.089-0.611-1.458v-1.825c0-1.437,1.111-2.623,2.452-2.623
	c1.344,0,2.455,1.187,2.455,2.623v1.825c-0.384,0.369-0.615,0.904-0.615,1.458c0,1.085,0.827,1.97,1.841,1.97
	c1.018,0,1.842-0.885,1.842-1.97c0-0.554-0.229-1.089-0.613-1.458v-1.825c0-1.867-0.938-3.607-2.454-4.53
	c0-1.499,0.134-3.098-0.422-4.492c4.563,1.066,5.331,7.507,5.331,11.586C29.5,29.78,27.446,31.75,24.381,31.75z M8.637,26.498
	c-0.671,0-1.229-0.594-1.229-1.31c0-0.721,0.557-1.314,1.229-1.314c0.67,0,1.226,0.594,1.226,1.314
	C9.862,25.904,9.307,26.498,8.637,26.498z M16,16c-4.065,0-7.363-3.528-7.363-7.875c0-4.348,3.298-7.875,7.363-7.875
	c4.063,0,7.364,3.527,7.364,7.875C23.364,12.472,20.063,16,16,16z"/>
</svg>
