<?xml version="1.0" encoding="utf-8"?>
<!-- Generator: Adobe Illustrator 16.0.0, SVG Export Plug-In . SVG Version: 6.00 Build 0)  -->
<!DOCTYPE svg PUBLIC "-//W3C//DTD SVG 1.1//EN" "http://www.w3.org/Graphics/SVG/1.1/DTD/svg11.dtd">
<svg version="1.1" id="Layer_1" xmlns="http://www.w3.org/2000/svg" xmlns:xlink="http://www.w3.org/1999/xlink" x="0px" y="0px"
	 width="32px" height="32px" viewBox="0 0 32 32" enable-background="new 0 0 32 32" xml:space="preserve">
<path fill="#030202" d="M13.273,31.438c-1.189,0-2.195-0.409-3.013-1.225l-8.482-8.472c-0.818-0.898-1.229-1.923-1.229-3.069
	c0-1.145,0.411-2.147,1.229-3.008c0.821-0.859,1.803-1.268,2.949-1.227c1.147,0.042,2.152,0.452,3.013,1.227l4.61,4.544
	L23.413,2.775c0.572-1.021,1.435-1.697,2.583-2.027c1.148-0.326,2.23-0.224,3.256,0.309c1.023,0.531,1.699,1.392,2.026,2.577
	c0.33,1.189,0.187,2.271-0.431,3.252L17.022,29.228C16.285,30.701,15.035,31.438,13.273,31.438z"/>
</svg>
