<?xml version="1.0" encoding="utf-8"?>
<!-- Generator: Adobe Illustrator 16.0.0, SVG Export Plug-In . SVG Version: 6.00 Build 0)  -->
<!DOCTYPE svg PUBLIC "-//W3C//DTD SVG 1.1//EN" "http://www.w3.org/Graphics/SVG/1.1/DTD/svg11.dtd">
<svg version="1.1" id="Layer_1" xmlns="http://www.w3.org/2000/svg" xmlns:xlink="http://www.w3.org/1999/xlink" x="0px" y="0px"
	 width="32px" height="32px" viewBox="0 0 32 32" enable-background="new 0 0 32 32" xml:space="preserve">
<path fill="#070404" d="M16,31.844C7.252,31.844,0.156,24.749,0.156,16C0.156,7.252,7.252,0.156,16,0.156
	c8.749,0,15.844,7.096,15.844,15.844C31.844,24.749,24.749,31.844,16,31.844z M16,4.777C9.811,4.777,4.777,9.811,4.777,16
	c0,6.189,5.034,11.225,11.223,11.225c6.189,0,11.225-5.035,11.225-11.225C27.225,9.811,22.189,4.777,16,4.777z M18.639,17.98
	c0,0.371-0.287,0.658-0.658,0.658h-6.601c-0.372,0-0.661-0.287-0.661-0.658v-1.322c0-0.371,0.29-0.658,0.661-0.658H16V8.738
	c0-0.371,0.288-0.66,0.658-0.66h1.322c0.371,0,0.658,0.289,0.658,0.66V17.98z"/>
</svg>
