<?xml version="1.0" encoding="utf-8"?>
<!-- Generator: Adobe Illustrator 16.0.0, SVG Export Plug-In . SVG Version: 6.00 Build 0)  -->
<!DOCTYPE svg PUBLIC "-//W3C//DTD SVG 1.1//EN" "http://www.w3.org/Graphics/SVG/1.1/DTD/svg11.dtd">
<svg version="1.1" id="Layer_1" xmlns="http://www.w3.org/2000/svg" xmlns:xlink="http://www.w3.org/1999/xlink" x="0px" y="0px"
	 width="32px" height="32px" viewBox="0 0 32 32" enable-background="new 0 0 32 32" xml:space="preserve">
<path fill="#030202" d="M28.666,30.856c0,0.625-0.52,1.144-1.15,1.144H4.485c-0.63,0-1.152-0.519-1.152-1.144V8
	c0-0.625,0.521-1.144,1.152-1.144h5.757V1.714C10.243,0.768,11.017,0,11.97,0h8.059c0.955,0,1.729,0.768,1.729,1.714v5.142h5.758
	c0.631,0,1.15,0.519,1.15,1.144V30.856z M26.365,29.713V9.143h-4.607v0.572c0,0.946-0.773,1.714-1.729,1.714H11.97
	c-0.954,0-1.728-0.768-1.728-1.714V9.143H5.637v20.57h6.909v-4c0-0.301,0.27-0.569,0.575-0.569h5.76
	c0.305,0,0.574,0.269,0.574,0.569v4H26.365z M10.243,15.428c0,0.305-0.27,0.572-0.575,0.572H8.515c-0.306,0-0.575-0.267-0.575-0.572
	v-1.143c0-0.304,0.27-0.571,0.575-0.571h1.153c0.306,0,0.575,0.267,0.575,0.571V15.428z M10.243,20c0,0.305-0.27,0.571-0.575,0.571
	H8.515c-0.306,0-0.575-0.267-0.575-0.571v-1.144c0-0.303,0.27-0.571,0.575-0.571h1.153c0.306,0,0.575,0.269,0.575,0.571V20z
	 M10.243,24.571c0,0.304-0.27,0.572-0.575,0.572H8.515c-0.306,0-0.575-0.269-0.575-0.572v-1.143c0-0.304,0.27-0.572,0.575-0.572
	h1.153c0.306,0,0.575,0.269,0.575,0.572V24.571z M19.455,2.857c0-0.304-0.27-0.572-0.574-0.572h-1.154
	c-0.305,0-0.574,0.268-0.574,0.572v1.714h-2.304V2.857c0-0.304-0.27-0.572-0.575-0.572h-1.153c-0.305,0-0.575,0.268-0.575,0.572
	v5.714c0,0.303,0.27,0.571,0.575,0.571h1.153c0.305,0,0.575-0.268,0.575-0.571V6.856h2.304v1.715c0,0.303,0.27,0.571,0.574,0.571
	h1.154c0.305,0,0.574-0.268,0.574-0.571V2.857z M14.849,15.428c0,0.305-0.27,0.572-0.575,0.572h-1.153
	c-0.305,0-0.575-0.267-0.575-0.572v-1.143c0-0.304,0.27-0.571,0.575-0.571h1.153c0.305,0,0.575,0.267,0.575,0.571V15.428z
	 M14.849,20c0,0.305-0.27,0.571-0.575,0.571h-1.153c-0.305,0-0.575-0.267-0.575-0.571v-1.144c0-0.303,0.27-0.571,0.575-0.571h1.153
	c0.305,0,0.575,0.269,0.575,0.571V20z M19.455,15.428c0,0.305-0.27,0.572-0.574,0.572h-1.154c-0.305,0-0.574-0.267-0.574-0.572
	v-1.143c0-0.304,0.27-0.571,0.574-0.571h1.154c0.305,0,0.574,0.267,0.574,0.571V15.428z M19.455,20c0,0.305-0.27,0.571-0.574,0.571
	h-1.154c-0.305,0-0.574-0.267-0.574-0.571v-1.144c0-0.303,0.27-0.571,0.574-0.571h1.154c0.305,0,0.574,0.269,0.574,0.571V20z
	 M24.061,15.428c0,0.305-0.27,0.572-0.576,0.572h-1.15c-0.307,0-0.576-0.267-0.576-0.572v-1.143c0-0.304,0.27-0.571,0.576-0.571
	h1.15c0.307,0,0.576,0.267,0.576,0.571V15.428z M24.061,20c0,0.305-0.27,0.571-0.576,0.571h-1.15c-0.307,0-0.576-0.267-0.576-0.571
	v-1.144c0-0.303,0.27-0.571,0.576-0.571h1.15c0.307,0,0.576,0.269,0.576,0.571V20z M24.061,24.571c0,0.304-0.27,0.572-0.576,0.572
	h-1.15c-0.307,0-0.576-0.269-0.576-0.572v-1.143c0-0.304,0.27-0.572,0.576-0.572h1.15c0.307,0,0.576,0.269,0.576,0.572V24.571z"/>
</svg>
