<?xml version="1.0" encoding="utf-8"?>
<!-- Generator: Adobe Illustrator 16.0.0, SVG Export Plug-In . SVG Version: 6.00 Build 0)  -->
<!DOCTYPE svg PUBLIC "-//W3C//DTD SVG 1.1//EN" "http://www.w3.org/Graphics/SVG/1.1/DTD/svg11.dtd">
<svg version="1.1" id="Layer_1" xmlns="http://www.w3.org/2000/svg" xmlns:xlink="http://www.w3.org/1999/xlink" x="0px" y="0px"
	 width="32px" height="32px" viewBox="0 0 32 32" enable-background="new 0 0 32 32" xml:space="preserve">
<g>
	<path fill="#070404" d="M22.477,30.133c0,0.771-0.588,1.412-1.295,1.412H10.818c-0.71,0-1.295-0.641-1.295-1.412v-2.828
		c0-0.771,0.585-1.412,1.295-1.412h1.295v-8.48h-1.295c-0.71,0-1.295-0.639-1.295-1.412v-2.826c0-0.773,0.585-1.413,1.295-1.413
		h7.773c0.707,0,1.295,0.64,1.295,1.413v12.718h1.295c0.707,0,1.295,0.641,1.295,1.412V30.133z"/>
	<path fill="#070404" d="M19.887,6.107c0,0.773-0.588,1.415-1.295,1.415h-5.183c-0.708,0-1.295-0.641-1.295-1.415V1.869
		c0-0.773,0.587-1.413,1.295-1.413h5.183c0.707,0,1.295,0.64,1.295,1.413V6.107z"/>
</g>
</svg>
