<?xml version="1.0" encoding="utf-8"?>
<!-- Generator: Adobe Illustrator 16.0.0, SVG Export Plug-In . SVG Version: 6.00 Build 0)  -->
<!DOCTYPE svg PUBLIC "-//W3C//DTD SVG 1.1//EN" "http://www.w3.org/Graphics/SVG/1.1/DTD/svg11.dtd">
<svg version="1.1" id="Layer_1" xmlns="http://www.w3.org/2000/svg" xmlns:xlink="http://www.w3.org/1999/xlink" x="0px" y="0px"
	 width="32px" height="32px" viewBox="0 0 32 32" enable-background="new 0 0 32 32" xml:space="preserve">
<path fill="#070404" d="M28.26,12.016c-0.432,4.581-2.18,8.836-5.246,12.768c-3.068,3.934-4.921,6.13-5.567,6.589
	c-0.407,0.379-0.884,0.565-1.432,0.565c-0.546,0-1.034-0.187-1.463-0.565c-0.643-0.459-2.499-2.655-5.566-6.589
	c-3.068-3.932-4.816-8.187-5.245-12.768c0.085-3.388,1.281-6.207,3.588-8.455C9.633,1.313,12.524,0.146,16,0.063
	c3.475,0.084,6.364,1.25,8.673,3.499C26.976,5.809,28.173,8.627,28.26,12.016z M16,16.596c1.328-0.041,2.433-0.491,3.314-1.348
	c0.881-0.858,1.34-1.936,1.384-3.232c-0.044-1.296-0.503-2.373-1.384-3.231C18.433,7.927,17.328,7.478,16,7.435
	c-1.33,0.043-2.436,0.492-3.314,1.349c-0.88,0.858-1.342,1.935-1.384,3.231c0.042,1.296,0.504,2.374,1.384,3.232
	C13.564,16.105,14.67,16.556,16,16.596z"/>
</svg>
