<?xml version="1.0" encoding="utf-8"?>
<!-- Generator: Adobe Illustrator 16.0.0, SVG Export Plug-In . SVG Version: 6.00 Build 0)  -->
<!DOCTYPE svg PUBLIC "-//W3C//DTD SVG 1.1//EN" "http://www.w3.org/Graphics/SVG/1.1/DTD/svg11.dtd">
<svg version="1.1" id="Layer_1" xmlns="http://www.w3.org/2000/svg" xmlns:xlink="http://www.w3.org/1999/xlink" x="0px" y="0px"
	 width="32px" height="32px" viewBox="0 0 32 32" enable-background="new 0 0 32 32" xml:space="preserve">
<path fill="#030202" d="M25.5,19.743c0,0.952-0.799,1.727-1.782,1.727c-0.984,0-1.781-0.774-1.781-1.727v-6.334h-1.188v16.407
	c0,1.117-0.928,2.017-2.078,2.017s-2.077-0.899-2.077-2.017V21.47h-1.188v8.347c0,1.117-0.928,2.017-2.078,2.017
	s-2.077-0.899-2.077-2.017V13.409h-1.188v6.334c0,0.952-0.798,1.727-1.781,1.727c-0.982,0-1.78-0.774-1.78-1.727v-7.485
	c0-1.907,1.595-3.455,3.562-3.455h11.875c1.967,0,3.563,1.548,3.563,3.455V19.743z M16,8.228c-2.301,0-4.156-1.799-4.156-4.03
	c0-2.23,1.855-4.03,4.156-4.03c2.299,0,4.155,1.8,4.155,4.03C20.155,6.429,18.299,8.228,16,8.228z"/>
</svg>
