<?xml version="1.0" encoding="utf-8"?>
<!-- Generator: Adobe Illustrator 16.0.0, SVG Export Plug-In . SVG Version: 6.00 Build 0)  -->
<!DOCTYPE svg PUBLIC "-//W3C//DTD SVG 1.1//EN" "http://www.w3.org/Graphics/SVG/1.1/DTD/svg11.dtd">
<svg version="1.1" id="Layer_1" xmlns="http://www.w3.org/2000/svg" xmlns:xlink="http://www.w3.org/1999/xlink" x="0px" y="0px"
	 width="32px" height="32px" viewBox="0 0 32 32" enable-background="new 0 0 32 32" xml:space="preserve">
<path fill="#070404" d="M29.443,27.971c-0.214,0.318-0.571,0.514-0.963,0.514H3.519c-0.392,0-0.748-0.195-0.962-0.514
	c-1.638-2.553-2.51-5.516-2.51-8.564C0.047,10.644,7.205,3.515,16,3.515c8.795,0,15.953,7.129,15.953,15.891
	C31.953,22.455,31.08,25.398,29.443,27.971z M4.605,17.135c-1.264,0-2.279,1.012-2.279,2.271c0,1.258,1.015,2.27,2.279,2.27
	c1.264,0,2.279-1.012,2.279-2.27C6.884,18.146,5.869,17.135,4.605,17.135z M8.023,9.19c-1.264,0-2.278,1.011-2.278,2.271
	c0,1.258,1.014,2.27,2.278,2.27c1.265,0,2.279-1.012,2.279-2.27C10.303,10.201,9.288,9.19,8.023,9.19z M19.722,13.215
	c0.142-0.603-0.213-1.223-0.819-1.383c-0.604-0.16-1.228,0.213-1.388,0.816l-1.799,6.774c-1.407,0.107-2.636,1.082-3.028,2.52
	c-0.48,1.826,0.624,3.688,2.44,4.168c1.833,0.479,3.704-0.621,4.183-2.432c0.375-1.436-0.23-2.891-1.388-3.688L19.722,13.215z
	 M16,5.785c-1.264,0-2.278,1.011-2.278,2.27c0,1.259,1.015,2.271,2.278,2.271c1.265,0,2.278-1.011,2.278-2.271
	C18.278,6.796,17.265,5.785,16,5.785z M23.976,9.19c-1.264,0-2.278,1.011-2.278,2.271c0,1.258,1.015,2.27,2.278,2.27
	c1.266,0,2.28-1.012,2.28-2.27C26.256,10.201,25.241,9.19,23.976,9.19z M27.396,17.135c-1.266,0-2.28,1.012-2.28,2.271
	c0,1.258,1.015,2.27,2.28,2.27c1.263,0,2.278-1.012,2.278-2.27C29.675,18.146,28.659,17.135,27.396,17.135z"/>
</svg>
