<?xml version="1.0" encoding="utf-8"?>
<!-- Generator: Adobe Illustrator 16.0.0, SVG Export Plug-In . SVG Version: 6.00 Build 0)  -->
<!DOCTYPE svg PUBLIC "-//W3C//DTD SVG 1.1//EN" "http://www.w3.org/Graphics/SVG/1.1/DTD/svg11.dtd">
<svg version="1.1" id="Layer_1" xmlns="http://www.w3.org/2000/svg" xmlns:xlink="http://www.w3.org/1999/xlink" x="0px" y="0px"
	 width="32px" height="32px" viewBox="0 0 32 32" enable-background="new 0 0 32 32" xml:space="preserve">
<path fill="#030202" d="M27.959,15.799v8.19c0,4.396-4.133,7.961-9.211,7.961s-9.212-3.565-9.212-7.961v-2.737
	c-4.462-0.56-7.896-3.878-7.896-7.878V2.759c0-0.726,0.596-1.328,1.316-1.328c0.124,0,0.227,0.021,0.33,0.042
	c0.452-0.809,1.315-1.369,2.303-1.369c1.459,0,2.631,1.182,2.631,2.654c0,1.472-1.172,2.653-2.631,2.653
	c-0.473,0-0.926-0.145-1.316-0.374v8.335c0,2.924,2.96,5.309,6.579,5.309c3.618,0,6.58-2.385,6.58-5.309V5.039
	c-0.392,0.229-0.844,0.374-1.316,0.374c-1.459,0-2.632-1.182-2.632-2.653c0-1.473,1.173-2.654,2.632-2.654
	c0.987,0,1.851,0.56,2.302,1.369c0.104-0.021,0.206-0.042,0.33-0.042c0.719,0,1.314,0.602,1.314,1.328v10.615
	c0,4-3.432,7.319-7.895,7.878v2.737c0,2.923,2.961,5.307,6.581,5.307c3.618,0,6.578-2.384,6.578-5.307v-8.19
	c-1.54-0.56-2.632-2.011-2.632-3.752c0-2.198,1.771-3.981,3.949-3.981s3.947,1.783,3.947,3.981
	C30.591,13.788,29.501,15.239,27.959,15.799z M26.644,10.72c-0.721,0-1.317,0.601-1.317,1.327c0,0.726,0.597,1.327,1.317,1.327
	c0.719,0,1.315-0.601,1.315-1.327C27.959,11.321,27.362,10.72,26.644,10.72z"/>
</svg>
